<?xml version="1.0" encoding="utf-8"?>
<!-- Generator: Adobe Illustrator 16.0.0, SVG Export Plug-In . SVG Version: 6.00 Build 0)  -->
<svg version="1.2" baseProfile="tiny" id="Layer_1" xmlns="http://www.w3.org/2000/svg" xmlns:xlink="http://www.w3.org/1999/xlink"
	 x="0px" y="0px" width="636px" height="197px" viewBox="0 0 636 197" xml:space="preserve">
<g>
	<path fill="#414042" d="M569.236,128.314L569.236,128.314l25.662,43.504h33.681l-40.698-62.95l38.492-40.297h-36.487l-33.881,37.49
		v-83.4h-26.464v149.157h26.464v-29.671L569.236,128.314z M493.056,120.495c0,16.44-11.828,29.07-26.463,29.07
		s-26.463-13.031-26.463-29.07c0-16.438,11.828-29.671,26.463-29.671S493.056,103.655,493.056,120.495 M519.52,120.296
		c0-30.674-22.053-53.93-49.117-53.93c-11.828,0-22.454,4.41-30.272,12.029V22.662h-26.664v149.157h25.461v-11.026
		c8.02,8.421,19.045,13.232,31.476,13.232C497.467,174.024,519.52,150.769,519.52,120.296 M378.383,120.495
		c0,16.039-11.828,29.07-26.463,29.07s-26.464-12.63-26.464-29.07c0-16.84,11.829-29.671,26.464-29.671
		S378.383,104.057,378.383,120.495 M404.847,22.662L404.847,22.662h-26.464v55.734c-8.019-7.619-18.443-12.029-30.473-12.029
		c-26.864,0-49.117,23.255-49.117,53.93c0,30.473,22.253,53.729,49.117,53.729c12.63,0,23.456-4.812,31.676-13.232v11.026h25.261
		V22.662z M274.335,68.973L274.335,68.973c0-14.234,7.017-19.447,19.647-18.444v-24.86c-29.471-3.408-45.709,16.44-46.11,43.304
		v23.456v79.39h26.463v-79.39h18.645V68.973H274.335z"/>
	<path fill="#AAD037" d="M103.351,195.188c53.146,0,96.229-43.094,96.229-96.25c0-53.125-43.083-96.219-96.229-96.219
		S7.122,45.812,7.122,98.938C7.122,152.094,50.205,195.188,103.351,195.188"/>
	<path fill="#FFFFFF" d="M59.312,65.033c-6.818,12.243-10.225,28.868-10.225,49.872v34.64h46.325V103.22H75.587v-4.8
		c0-11.268,1.217-20.345,3.652-27.231c2.432-6.886,6.084-11.65,10.955-14.294V41.453C76.422,44.932,66.125,52.793,59.312,65.033"/>
	<path fill="#FFFFFF" d="M114.58,65.033c-6.818,12.243-10.225,28.868-10.225,49.872v34.64h46.325V103.22h-19.824v-4.8
		c0-11.268,1.217-20.345,3.652-27.231c2.432-6.886,6.084-11.65,10.955-14.294V41.453C131.691,44.932,121.394,52.793,114.58,65.033"
		/>
</g>
</svg>
